<svg width="35" height="37" viewBox="0 0 35 37" fill="none" xmlns="http://www.w3.org/2000/svg">
<path fill-rule="evenodd" clip-rule="evenodd" d="M1.0674 15.5435C1.12102 15.5526 1.17333 15.5579 1.22564 15.5579C1.63238 15.5579 2.00118 15.2545 2.08358 14.8425C2.25229 14.0055 2.48508 13.1763 2.77542 12.3786C5.09419 6.00553 11.0147 1.72371 17.5094 1.72371C23.9896 1.72371 29.9049 5.99245 32.2315 12.3472C32.518 13.1306 32.7494 13.944 32.9182 14.764C33.0149 15.2296 33.4701 15.5304 33.9356 15.4336C34.4025 15.3382 34.7033 14.8817 34.6066 14.4162C34.4208 13.5124 34.1658 12.6179 33.8493 11.7534C31.2768 4.72386 24.7102 0 17.5094 0C10.2928 0 3.72097 4.73825 1.15633 11.79C0.835912 12.6676 0.580886 13.5805 0.396482 14.4894C0.395175 14.4985 0.38602 14.5404 0.384712 14.5509L1.22826 14.7235L0.383404 14.5613C0.293164 15.0256 0.600503 15.4519 1.0674 15.5435Z" fill="#69A95D"/>
<path fill-rule="evenodd" clip-rule="evenodd" d="M34.9937 18.5999C35.0369 18.2429 34.8564 17.882 34.5137 17.7185C33.3131 17.1443 31.8196 16.6474 30.1155 16.238C29.5845 16.1098 29.0352 15.9895 28.465 15.8797C27.2906 15.6521 26.0377 15.4638 24.7247 15.3147C24.4631 12.7265 23.3724 10.8132 21.3779 9.48571C19.1847 8.02749 16.4487 7.9451 14.0554 9.26469C11.7458 10.5385 10.2915 12.8377 10.1633 15.3539C6.25425 15.8313 2.85914 16.6879 0.493282 17.8349C0.467125 17.8466 0.444892 17.8649 0.420044 17.8806C0.399118 17.8937 0.375578 17.9055 0.35596 17.9199C0.338958 17.9316 0.324572 17.946 0.308879 17.9604C0.278799 17.9853 0.250027 18.0114 0.22387 18.0402C0.219946 18.0454 0.216023 18.0507 0.2121 18.0559C0.0787014 18.2102 -0.00499951 18.4116 0.000231801 18.6313C0.00807893 19.1113 0.0381587 19.59 0.082625 20.066C0.0943954 20.1916 0.114013 20.3184 0.128399 20.444C0.231717 21.3595 0.403042 22.2605 0.63845 23.1459C0.702534 23.384 0.75877 23.6233 0.832009 23.8587C0.927479 24.166 1.03211 24.4682 1.14196 24.7677C1.37345 25.3993 1.63501 26.0153 1.92797 26.6078C2.20392 27.1701 2.50864 27.7103 2.8369 28.2321C3.09847 28.6493 3.37442 29.0534 3.66606 29.4444C4.01395 29.91 4.38275 30.3573 4.77118 30.7836C5.30084 31.3656 5.86582 31.9071 6.46088 32.4093C6.95001 32.8212 7.46137 33.2057 7.99104 33.5589C8.65149 34.0009 9.3381 34.3985 10.0522 34.745C10.7375 35.0772 11.4463 35.3637 12.1735 35.603C12.915 35.8462 13.6748 36.0398 14.4517 36.1797C15.4456 36.3602 16.4631 36.4557 17.4989 36.4557C17.5146 36.4557 17.5316 36.4544 17.5473 36.4544C22.317 36.4413 26.8407 34.3959 30.105 30.883C30.7223 30.2187 31.2991 29.5085 31.8196 28.7421C31.8745 28.661 31.9268 28.5773 31.9805 28.4963C32.5245 27.6671 32.998 26.7987 33.3995 25.8976C33.7042 25.2097 33.9671 24.5022 34.1881 23.7815C34.6929 22.1206 34.9688 20.3838 34.9963 18.6117C34.995 18.6078 34.9937 18.6039 34.9937 18.5999ZM30.0606 17.9944C31.2245 18.2886 32.2721 18.6274 33.1706 19.0066C31.9726 19.5533 30.8191 20.0346 29.6826 20.4361C29.0339 20.6663 28.3905 20.8716 27.747 21.0481C26.5085 21.3882 25.2713 21.6236 24.0014 21.74C24.4448 20.2124 24.7077 18.6391 24.7744 17.0501C26.0429 17.1992 27.2448 17.3889 28.3669 17.6125C28.9542 17.7302 29.5204 17.8571 30.0606 17.9944ZM25.4845 26.0728C24.3572 26.2167 23.218 26.2912 22.0685 26.2808C22.5785 25.3941 23.0232 24.4747 23.3946 23.5317C24.641 23.4624 25.8533 23.2846 27.0578 23.0112C26.6302 24.0431 26.1005 25.0684 25.4845 26.0728ZM22.0593 30.4684C21.0811 30.475 20.0963 30.4161 19.0984 30.2749C19.7811 29.549 20.4088 28.7826 20.9777 27.9822C21.4119 28.0058 21.8461 28.0202 22.2764 28.0202C22.9251 28.0202 23.5699 27.9953 24.2107 27.9469C23.5594 28.8127 22.8427 29.655 22.0593 30.4684ZM14.0973 28.903C14.6492 28.3184 15.1645 27.7076 15.6444 27.0733C16.7639 27.399 17.873 27.637 18.9702 27.7887C18.3909 28.5224 17.754 29.2208 17.066 29.8773C16.093 29.6354 15.1056 29.3149 14.0973 28.903ZM2.32684 22.7863C2.14636 22.1232 2.0038 21.451 1.90572 20.7696C4.4442 20.1209 7.736 20.2844 11.0814 21.2156C10.7505 21.9179 10.3765 22.5967 9.95799 23.2532C6.75775 22.4306 4.08717 22.5287 2.32684 22.7863ZM20.1107 26.1814C18.9768 26.0742 17.8324 25.8741 16.6776 25.572C17.1667 24.7964 17.6062 23.9921 17.9881 23.1642C19.2161 23.3879 20.3853 23.5121 21.5166 23.5501C21.119 24.4577 20.6495 25.3365 20.1107 26.1814ZM14.9657 25.0514C14.4373 24.8657 13.905 24.6591 13.3727 24.4263C12.7894 24.1726 12.2219 23.9594 11.6621 23.7658C12.0584 23.1106 12.4167 22.4331 12.7345 21.7361C13.9691 22.1716 15.1357 22.5182 16.2552 22.7915C15.8785 23.571 15.4483 24.3256 14.9657 25.0514ZM10.6799 25.2489C11.3273 25.4568 11.9969 25.7066 12.6835 26.0074C13.0916 26.1853 13.497 26.3488 13.9024 26.5018C13.4342 27.0851 12.9307 27.6461 12.3945 28.1823C11.3077 27.7455 10.2196 27.3885 9.14847 27.1138C9.69644 26.5188 10.2065 25.8963 10.6799 25.2489ZM14.8885 10.7752C16.7077 9.77214 18.7754 9.82706 20.4232 10.923C21.8971 11.9026 22.7106 13.2614 22.9722 15.1434C21.2288 14.9995 19.4057 14.921 17.5329 14.921C15.6 14.921 13.7128 15.01 11.9093 15.1721C12.0937 13.3569 13.191 11.7116 14.8885 10.7752ZM17.5329 16.6447C17.7749 16.6447 18.0129 16.6486 18.2536 16.6513C18.6132 16.6552 18.9716 16.6617 19.3273 16.6709C20.6063 16.7049 21.8527 16.7742 23.0559 16.8775C22.9944 18.5581 22.6962 20.2203 22.1757 21.8211C21.0471 21.8198 19.8818 21.723 18.6551 21.5216C18.0979 21.4301 17.529 21.3189 16.9457 21.1829C15.8171 20.92 14.6348 20.5734 13.3819 20.1353C13.3479 20.1235 13.3152 20.1131 13.2825 20.1013C12.7672 19.9195 12.2533 19.7573 11.7406 19.6096C8.38471 18.6405 5.10861 18.3972 2.36741 18.9033C5.99401 17.4817 11.5287 16.6447 17.5329 16.6447ZM2.86435 24.4498C4.32781 24.2628 6.40725 24.2157 8.88558 24.7637C8.35329 25.4425 7.77262 26.0885 7.15009 26.698C5.98744 26.5096 4.86009 26.4246 3.78898 26.4469C3.43979 25.81 3.13115 25.143 2.86435 24.4498ZM6.19932 29.787C5.80828 29.3685 5.43686 28.9291 5.08767 28.4674C5.01836 28.3746 4.95166 28.2817 4.88627 28.1889C5.05628 28.1967 5.22892 28.2046 5.4094 28.219C6.10647 28.2726 6.87024 28.3733 7.70071 28.542C8.69858 28.7447 9.79453 29.052 10.9716 29.4823C10.0823 30.2265 9.12362 30.9078 8.10482 31.5173C7.42476 30.9955 6.78915 30.4161 6.19932 29.787ZM9.66374 32.5767C10.7715 31.8639 11.8073 31.0701 12.7633 30.2069C13.7088 30.6267 14.6374 30.9641 15.5542 31.2401C14.4975 32.1477 13.3348 33.0344 12.0505 33.7302C11.2214 33.415 10.4223 33.0292 9.66374 32.5767ZM14.2804 34.3893C15.4966 33.5719 16.5874 32.6473 17.58 31.7527C18.5164 31.9424 19.441 32.0614 20.3565 32.1241C19.2253 33.1612 18.1437 34.0179 17.0673 34.7228C16.1166 34.6966 15.1854 34.5842 14.2804 34.3893ZM20.2846 34.4717C21.1085 33.7903 21.9482 33.0213 22.8087 32.162C24.076 32.111 25.3315 31.9554 26.5844 31.7239C24.7077 33.0984 22.5589 34.044 20.2846 34.4717ZM30.3928 27.773C30.0122 28.334 29.5989 28.865 29.1595 29.3659C27.6019 29.7975 26.0652 30.1258 24.5285 30.3089C25.2543 29.4562 25.9122 28.576 26.5046 27.6762C28.0596 27.433 29.5911 27.0733 31.0977 26.6326C30.8767 27.021 30.6452 27.4029 30.3928 27.773ZM27.679 25.708C28.2519 24.6369 28.7305 23.5487 29.1072 22.4554C30.4045 22.0474 31.7137 21.536 33.0699 20.9396C32.8802 22.1677 32.5598 23.3643 32.1099 24.51C30.6543 24.99 29.1778 25.4019 27.679 25.708Z" fill="#69A95D"/>
</svg>
